<svg width="79" height="119" viewBox="0 0 79 119" fill="none" xmlns="http://www.w3.org/2000/svg">
<g clip-path="url(#clip0_4003_580)">
<path d="M0 14.7847H21.0571C25.4955 14.7847 29.2698 15.7765 32.3969 17.7517C35.5155 19.7269 37.8524 22.2484 39.4075 25.2995C40.9542 28.3506 41.778 31.4521 41.8621 34.5872C41.8621 40.9078 39.6429 46.1527 35.2213 50.3216C39.1806 51.1369 42.8708 52.591 46.3173 54.6755C49.7554 56.7599 52.6555 59.2983 55.026 62.2821C57.3881 65.2743 59.1954 68.5776 60.4479 72.217C61.692 75.848 62.314 79.8153 62.314 84.1187C62.314 90.5654 60.7337 96.4826 57.5646 101.854C54.4039 107.224 50.1841 111.427 44.9135 114.461C39.6429 117.495 33.994 119.008 27.9669 119.008H0V14.7847ZM6.19525 20.3321V113.2H26.7732C32.1027 113.2 37.0538 111.889 41.6099 109.267C46.166 106.644 49.789 103.089 52.4789 98.5923C55.1689 94.104 56.5138 89.229 56.5138 83.9842C56.5138 77.84 55.0007 72.5784 51.9662 68.2162C48.9316 63.8539 45.0732 60.5759 40.391 58.3821C35.7005 56.1884 31.0771 55.0957 26.5211 55.0957C24.9323 55.0957 23.4865 55.2218 22.2004 55.4824V49.4223C24.781 49.2962 27.1263 48.5313 29.2278 47.1361C31.3377 45.7408 32.9769 43.9085 34.1622 41.6559C35.3474 39.3949 35.9358 36.9574 35.9358 34.335C35.8938 31.7546 35.1625 29.3928 33.7419 27.2411C32.3212 25.0894 30.4383 23.3999 28.1014 22.1812C25.7561 20.954 23.2091 20.3405 20.4603 20.3405H6.19525V20.3321Z" fill="white"/>
<path d="M16.6943 0H37.7515C42.1899 0 45.9642 0.991807 49.0912 2.96701C52.2099 4.94222 54.5467 7.46377 56.1019 10.5148C57.6486 13.5659 58.4724 16.6674 58.5564 19.8025C58.5564 26.1232 56.3372 31.368 51.9157 35.5369C55.8749 36.3522 59.5652 37.8063 63.0116 39.8908C66.4497 41.9753 69.3498 44.5136 71.7203 47.4975C74.0824 50.4897 75.8897 53.7929 77.1422 57.4323C78.3863 61.0634 79.0083 65.0306 79.0083 69.334C79.0083 75.7808 77.428 81.698 74.2589 87.0689C71.0982 92.4397 66.8784 96.6423 61.6078 99.6766C56.3372 102.711 50.6884 104.224 44.6612 104.224H16.6943V0ZM22.8896 5.54739V98.4158H43.4676C48.797 98.4158 53.7482 97.1046 58.3043 94.4822C62.8603 91.8598 66.4833 88.3044 69.1733 83.8077C71.8632 79.3193 73.2082 74.4443 73.2082 69.1995C73.2082 63.0554 71.6951 57.7938 68.6605 53.4315C65.6259 49.0692 61.7675 45.7912 57.0854 43.5975C52.3948 41.4037 47.7715 40.3111 43.2154 40.3111C41.6267 40.3111 40.1808 40.4371 38.8947 40.6977V34.6376C41.4754 34.5115 43.8206 33.7466 45.9221 32.3514C48.0321 30.9561 49.6712 29.1238 50.8565 26.8712C52.0417 24.6103 52.6302 22.1728 52.6302 19.5504C52.5881 16.97 51.8568 14.6081 50.4362 12.4564C49.0156 10.3047 47.1326 8.61527 44.7957 7.39652C42.4505 6.16937 39.9034 5.5558 37.1546 5.5558H22.898L22.8896 5.54739Z" fill="white"/>
</g>
<defs>
<clipPath id="clip0_4003_580">
<rect width="79" height="119" fill="white"/>
</clipPath>
</defs>
</svg>
