<svg width="242" height="80" viewBox="0 0 242 80" fill="none" xmlns="http://www.w3.org/2000/svg">
<path d="M211.203 72.8187C209.25 72.8187 207.663 74.4059 207.663 76.3594C207.663 78.3129 209.25 79.9001 211.203 79.9001C213.156 79.9001 214.743 78.3129 214.743 76.3594C214.743 74.4059 213.156 72.8187 211.203 72.8187Z" fill="white"/>
<path d="M31.5174 22.6514L24.8676 17.7613L8.8953 43.3815V23.9173L0.549316 17.7613V72.0862H8.8953V45.4121L26.4096 72.0862H36.7088L17.8131 43.8699L31.5174 22.6514Z" fill="white"/>
<path d="M170.777 37.4632C168.914 37.4632 167.051 37.7845 165.348 38.3564C163.646 38.9219 162.509 39.4103 161.943 39.8151C161.455 40.1428 161.05 40.387 160.806 40.6248V24.2386L153.025 18.0826V54.8968C153.025 60.4938 154.812 64.8698 158.294 68.0314C161.783 71.193 165.997 72.8187 170.777 72.8187C175.558 72.8187 179.939 71.1158 183.345 67.6266C186.833 64.1373 188.536 60.0054 188.536 55.141C188.536 50.2765 186.833 46.0611 183.428 42.6554C180.023 39.1661 175.808 37.4632 170.777 37.4632ZM170.777 65.3582C165.021 65.3582 160.806 60.9821 160.806 55.141C160.806 49.2998 165.181 44.9237 170.777 44.9237C176.374 44.9237 180.749 49.2227 180.749 55.141C180.749 61.0593 176.374 65.3582 170.777 65.3582Z" fill="white"/>
<path d="M233.954 17.7613V72.0862H241.741V23.9173L233.954 17.7613Z" fill="white"/>
<path d="M131.875 30.7224C127.904 30.7224 124.904 32.1811 122.796 35.0985C120.766 32.1811 117.849 30.7224 113.879 30.7224C106.741 30.7224 101.639 35.5033 101.639 44.5896V65.6731H109.42V44.5896C109.42 40.2906 110.962 38.1829 114.123 38.1829C117.284 38.1829 118.903 40.2906 118.903 44.5896V65.6731H126.683V44.5896C126.683 40.2906 128.303 38.1829 131.464 38.1829C134.625 38.1829 136.167 40.2906 136.167 44.5896V65.6731H143.947V44.5896C143.947 35.5868 138.923 30.7224 131.868 30.7224" fill="white"/>
<path d="M82.5442 28.4862L91.886 14.3877L91.1857 13.925L81.6897 28.2613C81.3427 28.1777 80.9894 28.1071 80.6296 28.0492L87.4592 9.82526L86.669 9.52967L79.775 27.9271C79.5373 27.895 79.2996 27.8693 79.0619 27.85L82.8012 5.07007L81.9724 4.93512L78.2202 27.7986C78.0789 27.7986 77.9375 27.7922 77.7962 27.7922V0H76.9545V27.7922C76.8131 27.7922 76.6718 27.7922 76.5369 27.7986L72.7911 4.9287L71.9623 5.06364L75.6952 27.85C75.4575 27.8693 75.2198 27.895 74.9821 27.9271L68.0881 9.52324L67.2978 9.81884L74.1275 28.0492C73.7742 28.1135 73.4208 28.1777 73.0738 28.2613L63.5714 13.9186L62.8711 14.3812L72.2129 28.4862C69.4823 29.2894 67.0409 30.7738 64.8564 32.9586C61.3677 36.4415 59.665 40.5798 59.665 45.4442C59.665 50.3087 61.3677 54.5241 64.8564 58.0134C68.3451 61.4191 72.4763 63.122 77.4235 63.122C82.3707 63.122 86.4248 61.4191 89.9071 58.0134C93.3959 54.5305 95.0985 50.3922 95.0985 45.4442C95.0985 40.4963 93.3959 36.4415 89.9071 32.9586C87.7162 30.7674 85.2748 29.283 82.5506 28.4798M77.4107 35.2655C79.8329 35.2655 82.7433 36.3644 84.4652 38.1572C86.412 40.0207 87.3822 42.4562 87.3822 45.4571C87.3822 48.458 86.412 50.887 84.4652 52.8341C82.602 54.6976 80.2505 55.6679 77.4107 55.6679C74.5709 55.6679 72.2193 54.6976 70.2726 52.8341C68.4094 50.887 67.4328 48.4516 67.4328 45.4571C67.4328 42.4626 68.4029 40.0207 70.2726 38.1572C72.0523 36.3772 74.9885 35.2655 77.4107 35.2655Z" fill="white"/>
<path d="M211.242 27.7729C206.295 27.7729 202.163 29.4758 198.675 32.965C195.186 36.4543 193.483 40.5862 193.483 45.4506C193.483 50.3151 195.186 54.5305 198.675 58.0198C202.163 61.4255 206.295 63.1284 211.242 63.1284C216.189 63.1284 220.243 61.4255 223.725 58.0198C227.214 54.5369 228.917 50.3986 228.917 45.4506C228.917 40.5027 227.214 36.4479 223.725 32.965C220.237 29.4758 216.106 27.7729 211.242 27.7729ZM218.296 52.8341C216.433 54.6976 214.082 55.6679 211.242 55.6679C208.402 55.6679 206.051 54.6976 204.11 52.8341C202.247 50.887 201.27 48.458 201.27 45.4571C201.27 42.4562 202.241 40.0207 204.11 38.1572C206.057 36.2101 208.408 35.2398 211.242 35.2398C214.075 35.2398 216.433 36.2101 218.296 38.1572C220.243 40.0207 221.213 42.4562 221.213 45.4571C221.213 48.458 220.243 50.887 218.296 52.8341Z" fill="white"/>
<path d="M40.4419 42.1285V62.7236H48.1454V42.1285C48.1454 37.8295 50.0921 35.6447 53.9792 35.6447H55.4377V28.1842H53.5744C46.038 28.1842 40.4419 32.1554 40.4419 42.1285Z" fill="white"/>
</svg>
