<svg width="88" height="119" viewBox="0 0 88 119" fill="none" xmlns="http://www.w3.org/2000/svg">
<g clip-path="url(#clip0_4003_562)">
<path d="M41.0347 12.7656V25.274C41.0347 25.274 40.9688 27.4804 42.8675 27.4804H44.7292C46.6279 27.4804 46.562 25.274 46.562 25.274V12.7656C46.562 11.2642 46.9203 10.9698 47.1798 10.6546C47.7523 9.95781 48.8396 9.94536 48.8396 9.94536V8.76337H38.7529V9.94536C38.7529 9.94536 39.8403 9.96195 40.4128 10.6546C40.6722 10.9698 41.0306 11.2642 41.0306 12.7656H41.0347Z" fill="white"/>
<path d="M85.5247 4.34228C85.5247 2.71237 85.9118 2.39302 86.196 2.05294C86.8179 1.29812 88 1.28153 88 1.28153V0H77.0608V1.28153C77.0608 1.28153 78.2387 1.29812 78.8647 2.05294C79.1489 2.39717 79.5361 2.71237 79.5361 4.34228V73.7814H67.9337V24.2371C67.9337 22.6072 68.3209 22.2879 68.6051 21.9478C69.227 21.193 70.4091 21.1764 70.4091 21.1764V19.8949H59.4698V21.1764C59.4698 21.1764 60.6478 21.193 61.2738 21.9478C61.558 22.292 61.9451 22.6072 61.9451 24.2371L61.8998 73.6736H61.6898H58.9467C57.5011 73.6736 57.2169 73.3252 56.9121 73.0681C56.2408 72.5082 56.2284 71.4464 56.2284 71.4464H55.0916V81.2923H56.2284C56.2284 81.2923 56.2408 80.2305 56.9121 79.6707C57.2169 79.4177 57.497 79.0651 58.9467 79.0651H61.974V84.0337L61.6404 102.444C61.6404 102.444 61.6404 105.741 59.3627 107.765C57.0851 109.793 51.8955 113.675 44.0124 113.675C36.1292 113.675 30.9437 109.793 28.662 107.765C26.3843 105.737 26.3843 102.444 26.3843 102.444L26.0507 84.0337V79.0651H29.078C30.5236 79.0651 30.8078 79.4135 31.1126 79.6707C31.784 80.2305 31.7963 81.2923 31.7963 81.2923H32.9331V71.4464H31.7963C31.7963 71.4464 31.784 72.5082 31.1126 73.0681C30.8078 73.321 30.5278 73.6736 29.078 73.6736H26.1249L26.0796 24.2371C26.0796 22.6072 26.4667 22.2879 26.7509 21.9478C27.3728 21.193 28.5549 21.1764 28.5549 21.1764V19.8949H17.6157V21.1764C17.6157 21.1764 18.7936 21.193 19.4196 21.9478C19.7038 22.292 20.091 22.6072 20.091 24.2371V73.7814H8.48863V4.34228C8.48863 2.71237 8.87578 2.39302 9.15997 2.05294C9.7819 1.29812 10.964 1.28153 10.964 1.28153V0H0V1.28153C0 1.28153 1.17795 1.29812 1.80399 2.05294C2.08818 2.39717 2.47533 2.71237 2.47533 4.34228V73.7814C2.47533 73.7814 2.54947 75.7307 1.99757 76.5187C1.44566 77.3067 0 77.6426 0 77.6426V79.0029H20.1157V89.5496L20.5523 102.734C20.5523 102.734 20.6182 104.733 20.8241 105.828C21.0177 106.865 21.932 108.814 22.8258 109.876C23.7154 110.938 29.9594 118.996 44 118.996C58.0406 118.996 64.2846 110.938 65.1742 109.876C66.0638 108.814 66.9782 106.865 67.1759 105.828C67.3818 104.733 67.4477 102.734 67.4477 102.734L67.8843 89.5496V79.0029H88V77.6426C88 77.6426 86.5543 77.3025 86.0024 76.5187C85.4505 75.7307 85.5247 73.7814 85.5247 73.7814V4.34228Z" fill="white"/>
</g>
<defs>
<clipPath id="clip0_4003_562">
<rect width="88" height="119" fill="white"/>
</clipPath>
</defs>
</svg>
