<svg width="53" height="59" viewBox="0 0 53 59" fill="none" xmlns="http://www.w3.org/2000/svg">
<g clip-path="url(#clip0_4002_393)">
<path d="M52.1663 51.8542C52.1663 51.8542 52.1557 52.6248 51.6661 53.0312C51.4445 53.2164 51.2377 53.4691 50.1762 53.4691H35.087V3.1518C35.087 1.96856 35.3719 1.73907 35.5787 1.49063C36.0346 0.943225 36.8998 0.930593 36.8998 0.930593V0H28.8867V0.930593C28.8867 0.930593 29.7499 0.943225 30.2057 1.49063C30.4125 1.73907 30.6974 1.97067 30.6974 3.1518V53.5491C30.6974 53.5491 30.7523 54.9639 30.3492 55.5345C29.9461 56.1051 28.8867 56.3514 28.8867 56.3514V57.3851H50.1783C51.2377 57.3851 51.4445 57.6378 51.6682 57.8231C52.1578 58.2294 52.1684 59 52.1684 59H53.002V51.8542H52.1684H52.1663Z" fill="#D59F55"/>
<path d="M0.833599 51.8542C0.833599 51.8542 0.844151 52.6248 1.33376 53.0312C1.55535 53.2164 1.76216 53.4691 2.82368 53.4691H3.14868H17.9129V3.1518C17.9129 1.96856 17.628 1.73907 17.4212 1.49063C16.9653 0.943225 16.1001 0.930593 16.1001 0.930593V0H24.1132V0.930593C24.1132 0.930593 23.25 0.943225 22.7942 1.49063C22.5874 1.73907 22.3025 1.97067 22.3025 3.1518V53.5491C22.3025 53.5491 22.2476 54.9639 22.6507 55.5345C23.0538 56.1051 24.1132 56.3514 24.1132 56.3514V57.3388V57.3851H2.89755H2.82579C1.76639 57.3851 1.55957 57.6378 1.33587 57.8231C0.846261 58.2294 0.835709 59 0.835709 59H0V51.8542H0.833599Z" fill="#D59F55"/>
</g>
<defs>
<clipPath id="clip0_4002_393">
<rect width="53" height="59" fill="white"/>
</clipPath>
</defs>
</svg>
